<mxfile host="app.diagrams.net" agent="Mozilla/5.0 (Windows NT 10.0; Win64; x64) AppleWebKit/537.36 (KHTML, like Gecko) Chrome/141.0.0.0 Safari/537.36 Edg/141.0.0.0" version="28.2.5">
  <diagram name="Page-1" id="AGHffNOtgMvOGxoeP8jH">
    <mxGraphModel dx="1418" dy="-2544" grid="1" gridSize="10" guides="1" tooltips="1" connect="1" arrows="1" fold="1" page="1" pageScale="1" pageWidth="850" pageHeight="1100" math="0" shadow="0">
      <root>
        <mxCell id="0" />
        <mxCell id="1" parent="0" />
        <mxCell id="07TfnRYINfUNNWAH0IBF-1" value="" style="ellipse;html=1;shape=startState;fillColor=#000000;strokeColor=#ff0000;direction=south;" parent="1" vertex="1">
          <mxGeometry x="409" y="3650" width="30" height="30" as="geometry" />
        </mxCell>
        <mxCell id="07TfnRYINfUNNWAH0IBF-3" value="Start" style="text;html=1;align=center;verticalAlign=middle;resizable=0;points=[];autosize=1;strokeColor=#82b366;fillColor=#d5e8d4;" parent="1" vertex="1">
          <mxGeometry x="399" y="3620" width="50" height="30" as="geometry" />
        </mxCell>
        <mxCell id="07TfnRYINfUNNWAH0IBF-5" value="Check User Type" style="rhombus;whiteSpace=wrap;html=1;fillColor=#fff2cc;strokeColor=#d6b656;" parent="1" vertex="1">
          <mxGeometry x="384" y="4350" width="84" height="80" as="geometry" />
        </mxCell>
        <mxCell id="07TfnRYINfUNNWAH0IBF-6" value="Admin" style="rounded=1;whiteSpace=wrap;html=1;fillColor=#dae8fc;strokeColor=#6c8ebf;" parent="1" vertex="1">
          <mxGeometry x="200" y="4480" width="120" height="60" as="geometry" />
        </mxCell>
        <mxCell id="07TfnRYINfUNNWAH0IBF-7" value="Teacher" style="rounded=1;whiteSpace=wrap;html=1;fillColor=#dae8fc;strokeColor=#6c8ebf;" parent="1" vertex="1">
          <mxGeometry x="366" y="4480" width="120" height="60" as="geometry" />
        </mxCell>
        <mxCell id="07TfnRYINfUNNWAH0IBF-8" value="Student" style="rounded=1;whiteSpace=wrap;html=1;fillColor=#dae8fc;strokeColor=#6c8ebf;" parent="1" vertex="1">
          <mxGeometry x="530" y="4480" width="120" height="60" as="geometry" />
        </mxCell>
        <mxCell id="07TfnRYINfUNNWAH0IBF-10" value="" style="endArrow=classic;html=1;rounded=0;exitX=1;exitY=0.5;exitDx=0;exitDy=0;" parent="1" source="07TfnRYINfUNNWAH0IBF-5" edge="1">
          <mxGeometry width="50" height="50" relative="1" as="geometry">
            <mxPoint x="710" y="4602" as="sourcePoint" />
            <mxPoint x="590" y="4480" as="targetPoint" />
            <Array as="points">
              <mxPoint x="590" y="4390" />
            </Array>
          </mxGeometry>
        </mxCell>
        <mxCell id="07TfnRYINfUNNWAH0IBF-11" value="" style="endArrow=classic;html=1;rounded=0;exitX=0;exitY=0.5;exitDx=0;exitDy=0;" parent="1" source="07TfnRYINfUNNWAH0IBF-5" edge="1">
          <mxGeometry width="50" height="50" relative="1" as="geometry">
            <mxPoint x="370" y="4482" as="sourcePoint" />
            <mxPoint x="260" y="4480" as="targetPoint" />
            <Array as="points">
              <mxPoint x="260" y="4390" />
            </Array>
          </mxGeometry>
        </mxCell>
        <mxCell id="07TfnRYINfUNNWAH0IBF-12" value="" style="endArrow=classic;html=1;rounded=0;exitX=0.5;exitY=1;exitDx=0;exitDy=0;" parent="1" source="07TfnRYINfUNNWAH0IBF-5" edge="1">
          <mxGeometry width="50" height="50" relative="1" as="geometry">
            <mxPoint x="710" y="4602" as="sourcePoint" />
            <mxPoint x="426" y="4480" as="targetPoint" />
          </mxGeometry>
        </mxCell>
        <mxCell id="07TfnRYINfUNNWAH0IBF-15" value="Manage Courses Upload Grades" style="rounded=1;whiteSpace=wrap;html=1;fillColor=#dae8fc;strokeColor=#6c8ebf;" parent="1" vertex="1">
          <mxGeometry x="368" y="4610" width="120" height="60" as="geometry" />
        </mxCell>
        <mxCell id="07TfnRYINfUNNWAH0IBF-16" value="View Enroll Courses &amp;amp; Results" style="rounded=1;whiteSpace=wrap;html=1;fillColor=#dae8fc;strokeColor=#6c8ebf;" parent="1" vertex="1">
          <mxGeometry x="530" y="4610" width="120" height="60" as="geometry" />
        </mxCell>
        <mxCell id="07TfnRYINfUNNWAH0IBF-17" value="" style="endArrow=classic;html=1;rounded=0;entryX=0.5;entryY=0;entryDx=0;entryDy=0;" parent="1" source="07TfnRYINfUNNWAH0IBF-7" target="07TfnRYINfUNNWAH0IBF-15" edge="1">
          <mxGeometry width="50" height="50" relative="1" as="geometry">
            <mxPoint x="430" y="4632" as="sourcePoint" />
            <mxPoint x="760" y="4752" as="targetPoint" />
          </mxGeometry>
        </mxCell>
        <mxCell id="07TfnRYINfUNNWAH0IBF-19" value="" style="endArrow=classic;html=1;rounded=0;exitX=0.5;exitY=1;exitDx=0;exitDy=0;entryX=0.5;entryY=0;entryDx=0;entryDy=0;" parent="1" source="07TfnRYINfUNNWAH0IBF-8" target="07TfnRYINfUNNWAH0IBF-16" edge="1">
          <mxGeometry width="50" height="50" relative="1" as="geometry">
            <mxPoint x="710" y="4802" as="sourcePoint" />
            <mxPoint x="760" y="4752" as="targetPoint" />
          </mxGeometry>
        </mxCell>
        <mxCell id="07TfnRYINfUNNWAH0IBF-20" value="" style="shape=link;html=1;rounded=0;fillColor=#f8cecc;strokeColor=#b85450;" parent="1" edge="1">
          <mxGeometry width="100" relative="1" as="geometry">
            <mxPoint x="376" y="4760" as="sourcePoint" />
            <mxPoint x="476" y="4760" as="targetPoint" />
          </mxGeometry>
        </mxCell>
        <mxCell id="07TfnRYINfUNNWAH0IBF-22" value="" style="endArrow=classic;html=1;rounded=0;exitX=0.5;exitY=1;exitDx=0;exitDy=0;" parent="1" source="07TfnRYINfUNNWAH0IBF-14" edge="1">
          <mxGeometry width="50" height="50" relative="1" as="geometry">
            <mxPoint x="710" y="4902" as="sourcePoint" />
            <mxPoint x="400" y="4760" as="targetPoint" />
            <Array as="points">
              <mxPoint x="260" y="4730" />
              <mxPoint x="400" y="4730" />
            </Array>
          </mxGeometry>
        </mxCell>
        <mxCell id="07TfnRYINfUNNWAH0IBF-23" value="" style="endArrow=classic;html=1;rounded=0;exitX=0.5;exitY=1;exitDx=0;exitDy=0;" parent="1" source="07TfnRYINfUNNWAH0IBF-15" edge="1">
          <mxGeometry width="50" height="50" relative="1" as="geometry">
            <mxPoint x="710" y="4902" as="sourcePoint" />
            <mxPoint x="430" y="4760" as="targetPoint" />
          </mxGeometry>
        </mxCell>
        <mxCell id="07TfnRYINfUNNWAH0IBF-24" value="" style="endArrow=classic;html=1;rounded=0;exitX=0.5;exitY=1;exitDx=0;exitDy=0;" parent="1" source="07TfnRYINfUNNWAH0IBF-16" edge="1">
          <mxGeometry width="50" height="50" relative="1" as="geometry">
            <mxPoint x="710" y="4902" as="sourcePoint" />
            <mxPoint x="460" y="4760" as="targetPoint" />
            <Array as="points">
              <mxPoint x="590" y="4730" />
              <mxPoint x="460" y="4730" />
            </Array>
          </mxGeometry>
        </mxCell>
        <mxCell id="07TfnRYINfUNNWAH0IBF-25" value="Database Update/Save" style="rounded=1;whiteSpace=wrap;html=1;fillColor=#dae8fc;strokeColor=#6c8ebf;" parent="1" vertex="1">
          <mxGeometry x="372" y="4850" width="120" height="60" as="geometry" />
        </mxCell>
        <mxCell id="07TfnRYINfUNNWAH0IBF-26" value="" style="endArrow=classic;html=1;rounded=0;entryX=0.5;entryY=0;entryDx=0;entryDy=0;" parent="1" edge="1">
          <mxGeometry width="50" height="50" relative="1" as="geometry">
            <mxPoint x="429.5" y="4760" as="sourcePoint" />
            <mxPoint x="429.5" y="4850" as="targetPoint" />
          </mxGeometry>
        </mxCell>
        <mxCell id="07TfnRYINfUNNWAH0IBF-27" value="" style="endArrow=classic;html=1;rounded=0;exitX=0.5;exitY=1;exitDx=0;exitDy=0;" parent="1" source="07TfnRYINfUNNWAH0IBF-25" edge="1">
          <mxGeometry width="50" height="50" relative="1" as="geometry">
            <mxPoint x="710" y="5002" as="sourcePoint" />
            <mxPoint x="430" y="4990" as="targetPoint" />
          </mxGeometry>
        </mxCell>
        <mxCell id="07TfnRYINfUNNWAH0IBF-28" value="Logout&amp;nbsp;" style="rounded=1;whiteSpace=wrap;html=1;fillColor=#dae8fc;strokeColor=#6c8ebf;" parent="1" vertex="1">
          <mxGeometry x="368" y="4990" width="120" height="60" as="geometry" />
        </mxCell>
        <mxCell id="07TfnRYINfUNNWAH0IBF-29" value="" style="ellipse;html=1;shape=endState;fillColor=#000000;strokeColor=#ff0000;" parent="1" vertex="1">
          <mxGeometry x="413" y="5110" width="30" height="30" as="geometry" />
        </mxCell>
        <mxCell id="07TfnRYINfUNNWAH0IBF-30" value="" style="endArrow=classic;html=1;rounded=0;exitX=0.5;exitY=1;exitDx=0;exitDy=0;" parent="1" source="07TfnRYINfUNNWAH0IBF-28" edge="1">
          <mxGeometry width="50" height="50" relative="1" as="geometry">
            <mxPoint x="710" y="5202" as="sourcePoint" />
            <mxPoint x="428" y="5110" as="targetPoint" />
          </mxGeometry>
        </mxCell>
        <mxCell id="07TfnRYINfUNNWAH0IBF-31" value="End" style="text;html=1;align=center;verticalAlign=middle;resizable=0;points=[];autosize=1;strokeColor=#82b366;fillColor=#d5e8d4;" parent="1" vertex="1">
          <mxGeometry x="406" y="5150" width="40" height="30" as="geometry" />
        </mxCell>
        <mxCell id="cWJEM-_9wpA2RHpBQRdI-35" value="" style="endArrow=classic;html=1;rounded=0;exitX=1;exitY=0.5;exitDx=0;exitDy=0;strokeColor=light-dark(#eb0f0f, #ededed);" edge="1" parent="1" source="07TfnRYINfUNNWAH0IBF-1">
          <mxGeometry width="50" height="50" relative="1" as="geometry">
            <mxPoint x="420" y="4020" as="sourcePoint" />
            <mxPoint x="424" y="3710" as="targetPoint" />
          </mxGeometry>
        </mxCell>
        <mxCell id="cWJEM-_9wpA2RHpBQRdI-36" value="User Opens&lt;div&gt;System&lt;/div&gt;" style="rounded=1;whiteSpace=wrap;html=1;fillColor=#dae8fc;strokeColor=#6c8ebf;" vertex="1" parent="1">
          <mxGeometry x="364" y="3710" width="120" height="60" as="geometry" />
        </mxCell>
        <mxCell id="cWJEM-_9wpA2RHpBQRdI-38" value="Registration/Login" style="rounded=1;whiteSpace=wrap;html=1;fillColor=#dae8fc;strokeColor=#6c8ebf;" vertex="1" parent="1">
          <mxGeometry x="364" y="3830" width="120" height="60" as="geometry" />
        </mxCell>
        <mxCell id="cWJEM-_9wpA2RHpBQRdI-39" value="Verify Login Information" style="rounded=1;whiteSpace=wrap;html=1;fillColor=#dae8fc;strokeColor=#6c8ebf;" vertex="1" parent="1">
          <mxGeometry x="365" y="3940" width="120" height="60" as="geometry" />
        </mxCell>
        <mxCell id="cWJEM-_9wpA2RHpBQRdI-40" value="if Login&amp;nbsp;&lt;div&gt;Successful?&lt;/div&gt;" style="rhombus;whiteSpace=wrap;html=1;fillColor=#fff2cc;strokeColor=#d6b656;" vertex="1" parent="1">
          <mxGeometry x="372" y="4060" width="108" height="80" as="geometry" />
        </mxCell>
        <mxCell id="cWJEM-_9wpA2RHpBQRdI-41" value="&amp;nbsp;Dashboard" style="rounded=1;whiteSpace=wrap;html=1;fillColor=#dae8fc;strokeColor=#6c8ebf;" vertex="1" parent="1">
          <mxGeometry x="366" y="4200" width="120" height="60" as="geometry" />
        </mxCell>
        <mxCell id="cWJEM-_9wpA2RHpBQRdI-44" value="" style="endArrow=classic;html=1;rounded=0;entryX=0.5;entryY=0.033;entryDx=0;entryDy=0;entryPerimeter=0;exitX=0.491;exitY=1;exitDx=0;exitDy=0;exitPerimeter=0;" edge="1" parent="1" source="cWJEM-_9wpA2RHpBQRdI-40" target="cWJEM-_9wpA2RHpBQRdI-41">
          <mxGeometry width="50" height="50" relative="1" as="geometry">
            <mxPoint x="435.5" y="4140" as="sourcePoint" />
            <mxPoint x="435.5" y="4197" as="targetPoint" />
          </mxGeometry>
        </mxCell>
        <mxCell id="cWJEM-_9wpA2RHpBQRdI-45" value="" style="endArrow=classic;html=1;rounded=0;entryX=0.5;entryY=0;entryDx=0;entryDy=0;" edge="1" parent="1">
          <mxGeometry width="50" height="50" relative="1" as="geometry">
            <mxPoint x="425" y="3773" as="sourcePoint" />
            <mxPoint x="425" y="3830" as="targetPoint" />
          </mxGeometry>
        </mxCell>
        <mxCell id="cWJEM-_9wpA2RHpBQRdI-46" value="" style="endArrow=classic;html=1;rounded=0;entryX=0.5;entryY=0;entryDx=0;entryDy=0;exitX=0.5;exitY=1;exitDx=0;exitDy=0;" edge="1" parent="1" source="cWJEM-_9wpA2RHpBQRdI-38">
          <mxGeometry width="50" height="50" relative="1" as="geometry">
            <mxPoint x="423.5" y="3883" as="sourcePoint" />
            <mxPoint x="423.5" y="3940" as="targetPoint" />
          </mxGeometry>
        </mxCell>
        <mxCell id="cWJEM-_9wpA2RHpBQRdI-51" value="" style="ellipse;html=1;shape=startState;fillColor=#000000;strokeColor=#ff0000;direction=south;" vertex="1" parent="1">
          <mxGeometry x="409" y="3650" width="30" height="30" as="geometry" />
        </mxCell>
        <mxCell id="cWJEM-_9wpA2RHpBQRdI-52" value="User Opens&lt;div&gt;System&lt;/div&gt;" style="rounded=1;whiteSpace=wrap;html=1;fillColor=#dae8fc;strokeColor=#6c8ebf;" vertex="1" parent="1">
          <mxGeometry x="364" y="3710" width="120" height="60" as="geometry" />
        </mxCell>
        <mxCell id="cWJEM-_9wpA2RHpBQRdI-53" value="Registration/Login" style="rounded=1;whiteSpace=wrap;html=1;fillColor=#dae8fc;strokeColor=#6c8ebf;" vertex="1" parent="1">
          <mxGeometry x="364" y="3830" width="120" height="60" as="geometry" />
        </mxCell>
        <mxCell id="cWJEM-_9wpA2RHpBQRdI-54" value="Verify Login Information" style="rounded=1;whiteSpace=wrap;html=1;fillColor=#dae8fc;strokeColor=#6c8ebf;" vertex="1" parent="1">
          <mxGeometry x="365" y="3940" width="120" height="60" as="geometry" />
        </mxCell>
        <mxCell id="cWJEM-_9wpA2RHpBQRdI-55" value="" style="endArrow=classic;html=1;rounded=0;entryX=0.5;entryY=0;entryDx=0;entryDy=0;" edge="1" parent="1" target="cWJEM-_9wpA2RHpBQRdI-40">
          <mxGeometry width="50" height="50" relative="1" as="geometry">
            <mxPoint x="423.5" y="4000" as="sourcePoint" />
            <mxPoint x="423.5" y="4057" as="targetPoint" />
          </mxGeometry>
        </mxCell>
        <mxCell id="cWJEM-_9wpA2RHpBQRdI-56" value="Yes" style="text;html=1;align=center;verticalAlign=middle;resizable=0;points=[];autosize=1;strokeColor=none;fillColor=none;" vertex="1" parent="1">
          <mxGeometry x="425" y="4150" width="40" height="30" as="geometry" />
        </mxCell>
        <mxCell id="cWJEM-_9wpA2RHpBQRdI-57" value="" style="endArrow=classic;html=1;rounded=0;exitX=0;exitY=0.5;exitDx=0;exitDy=0;" edge="1" parent="1" source="cWJEM-_9wpA2RHpBQRdI-40">
          <mxGeometry width="50" height="50" relative="1" as="geometry">
            <mxPoint x="372" y="4110" as="sourcePoint" />
            <mxPoint x="410" y="5130" as="targetPoint" />
            <Array as="points">
              <mxPoint x="180" y="4100" />
              <mxPoint x="180" y="5130" />
            </Array>
          </mxGeometry>
        </mxCell>
        <mxCell id="cWJEM-_9wpA2RHpBQRdI-59" value="No" style="text;html=1;align=center;verticalAlign=middle;resizable=0;points=[];autosize=1;strokeColor=none;fillColor=none;" vertex="1" parent="1">
          <mxGeometry x="290" y="4068" width="40" height="30" as="geometry" />
        </mxCell>
        <mxCell id="cWJEM-_9wpA2RHpBQRdI-62" value="" style="endArrow=classic;html=1;rounded=0;exitX=0.5;exitY=1;exitDx=0;exitDy=0;" edge="1" parent="1" source="07TfnRYINfUNNWAH0IBF-6" target="07TfnRYINfUNNWAH0IBF-14">
          <mxGeometry width="50" height="50" relative="1" as="geometry">
            <mxPoint x="260" y="4540" as="sourcePoint" />
            <mxPoint x="260" y="4762" as="targetPoint" />
          </mxGeometry>
        </mxCell>
        <mxCell id="07TfnRYINfUNNWAH0IBF-14" value="Manage User &amp;amp; Course" style="rounded=1;whiteSpace=wrap;html=1;fillColor=#dae8fc;strokeColor=#6c8ebf;" parent="1" vertex="1">
          <mxGeometry x="200" y="4610" width="120" height="60" as="geometry" />
        </mxCell>
        <mxCell id="cWJEM-_9wpA2RHpBQRdI-63" value="" style="endArrow=classic;html=1;rounded=0;exitX=0.5;exitY=1;exitDx=0;exitDy=0;entryX=0.5;entryY=0;entryDx=0;entryDy=0;" edge="1" parent="1" target="07TfnRYINfUNNWAH0IBF-5">
          <mxGeometry width="50" height="50" relative="1" as="geometry">
            <mxPoint x="427.5" y="4260" as="sourcePoint" />
            <mxPoint x="427.5" y="4310" as="targetPoint" />
          </mxGeometry>
        </mxCell>
      </root>
    </mxGraphModel>
  </diagram>
</mxfile>
